<?xml version="1.0" encoding="iso-8859-1"?>
<!-- Generator: Adobe Illustrator 19.0.0, SVG Export Plug-In . SVG Version: 6.00 Build 0)  -->
<svg version="1.1" id="Layer_1" xmlns="http://www.w3.org/2000/svg" xmlns:xlink="http://www.w3.org/1999/xlink" x="0px" y="0px"
	 viewBox="0 0 512 512" style="enable-background:new 0 0 512 512;" xml:space="preserve">
<g>
	<g>
		<g>
			<path d="M414.755,0H97.245C86.9,0,78.513,8.387,78.513,18.732c0,9.855,0,465.91,0,474.537C78.513,503.613,86.9,512,97.245,512
				h317.51c10.345,0,18.732-8.387,18.732-18.732c0-8.645,0-464.769,0-474.537C433.487,8.387,425.1,0,414.755,0z M396.023,474.537
				H115.977V353.821h280.047V474.537z M396.023,316.359H115.977V195.643h280.047V316.359z M396.023,158.179H115.977V37.463h280.047
				V158.179z"/>
			<circle cx="334.623" cy="97.817" r="23.977"/>
			<path d="M168.166,116.554h93.315c10.345,0,18.732-8.387,18.732-18.732s-8.387-18.732-18.732-18.732h-93.315
				c-10.345,0-18.732,8.387-18.732,18.732S157.821,116.554,168.166,116.554z"/>
			<circle cx="334.623" cy="256" r="23.977"/>
			<path d="M168.166,274.732h93.315c10.345,0,18.732-8.387,18.732-18.732s-8.387-18.732-18.732-18.732h-93.315
				c-10.345,0-18.732,8.387-18.732,18.732S157.821,274.732,168.166,274.732z"/>
			<circle cx="334.623" cy="414.183" r="23.977"/>
			<path d="M168.166,432.911h93.315c10.345,0,18.732-8.387,18.732-18.732s-8.387-18.732-18.732-18.732h-93.315
				c-10.345,0-18.732,8.387-18.732,18.732S157.821,432.911,168.166,432.911z"/>
		</g>
	</g>
</g>
<g>
</g>
<g>
</g>
<g>
</g>
<g>
</g>
<g>
</g>
<g>
</g>
<g>
</g>
<g>
</g>
<g>
</g>
<g>
</g>
<g>
</g>
<g>
</g>
<g>
</g>
<g>
</g>
<g>
</g>
</svg>
